<svg xmlns="http://www.w3.org/2000/svg" width="512" height="512"><path d="M276.7 392.555l-100.201 99.901c-2.999 1.8-6.899 6.301-15 3.9-4.199-1.5-9.3-6.301-10.199-11.7v-.3l-28.801-172.2 23.401-17.699 57.299 33.6 73.5 43.2a15.4 15.4 0 01.001 21.298z" fill="#009ae4"/><path d="M511.708 32.964L420.7 484.956c-.9 4.8-4.5 9-9.3 10.8-1.8.9-3.6 1.2-5.4 1.2-3 0-6-.9-8.7-2.7l-210-150c-133.84-66.3-64.027-31.453-178.9-88.8-5.4-2.7-8.4-8.1-8.4-13.8.3-6 3.6-11.1 9-13.5L491.008 16.164c5.1-2.1 11.1-1.5 15.3 2.1l2.1 2.1c3 3.6 4.2 8.1 3.3 12.6z" fill="#25d9f8"/><path d="M508.408 20.364L203.2 328.056l-15.899 16.199-25.801 152.1c-4.199-1.5-9.3-6.301-10.199-11.7v-.3l-28.801-172.2 23.401-17.699L508.408 20.364z" fill="#00c0f1"/></svg>